<?xml version="1.0" standalone="no"?>
<!DOCTYPE svg PUBLIC "-//W3C//DTD SVG 20010904//EN"
 "http://www.w3.org/TR/2001/REC-SVG-20010904/DTD/svg10.dtd">
<svg version="1.0" xmlns="http://www.w3.org/2000/svg"
 width="664.000000pt" height="128.000000pt" viewBox="0 0 664.000000 128.000000"
 preserveAspectRatio="xMidYMid meet">

<g transform="translate(0.000000,128.000000) scale(0.100000,-0.100000)"
fill="#000000" stroke="none">
<path d="M0 640 l0 -640 3320 0 3320 0 0 640 0 640 -3320 0 -3320 0 0 -640z
m6443 566 c72 -30 124 -123 113 -202 -16 -123 -152 -199 -269 -150 -120 50
-151 224 -55 313 53 50 145 67 211 39z m-5801 -41 c185 -39 331 -166 399 -346
29 -79 36 -216 14 -304 -35 -144 -137 -276 -265 -344 -104 -56 -139 -61 -417
-61 l-253 0 0 535 0 535 228 0 c158 0 247 -5 294 -15z m2336 -148 l3 -158 32
8 c17 4 70 8 117 8 74 0 93 -4 150 -31 83 -39 124 -75 170 -146 91 -139 75
-335 -36 -458 -86 -95 -188 -136 -322 -128 -179 11 -318 136 -352 317 -11 60
-14 734 -3 745 4 3 59 5 122 4 l116 -3 3 -158z m2530 -92 l2 -249 103 102 103
103 169 -3 170 -3 -137 -139 c-76 -77 -138 -142 -138 -146 0 -7 105 -192 221
-388 27 -46 49 -85 49 -88 0 -2 -63 -4 -139 -4 l-139 0 -87 150 c-48 83 -90
150 -95 150 -4 0 -24 -18 -44 -40 l-36 -40 0 -109 0 -110 -121 -3 c-66 -2
-123 -1 -125 1 -7 7 -4 1057 3 1065 4 3 59 5 122 4 l116 -3 3 -250z m-3817
-83 c76 -36 143 -103 186 -183 26 -50 28 -63 28 -164 0 -101 -2 -115 -29 -170
-37 -74 -104 -141 -182 -180 -55 -28 -67 -30 -169 -30 -104 0 -113 2 -171 32
-127 66 -202 178 -211 313 -7 98 9 164 57 238 79 123 200 186 345 179 65 -3
93 -9 146 -35z m839 1 c36 -18 76 -41 89 -53 l25 -21 -86 -85 -85 -86 -34 21
c-62 38 -141 20 -190 -43 -29 -37 -32 -120 -6 -160 43 -65 140 -87 199 -45
l30 21 36 -35 c20 -19 59 -55 86 -80 30 -28 47 -51 43 -59 -9 -24 -98 -78
-155 -94 -81 -24 -202 -16 -274 18 -304 141 -299 579 7 705 73 31 82 32 170
29 67 -2 92 -8 145 -33z m1593 4 c74 -33 160 -119 194 -193 37 -82 43 -197 13
-284 -42 -124 -138 -215 -262 -249 -79 -22 -204 -11 -273 25 -76 38 -145 107
-181 181 -53 107 -44 270 21 373 28 44 102 113 146 136 99 51 241 55 342 11z
m786 17 c270 -75 371 -418 185 -624 -49 -54 -125 -103 -186 -120 -74 -20 -201
-9 -269 22 -73 34 -153 113 -185 182 -141 308 132 631 455 540z"/>
<path d="M6279 1172 c-149 -95 -72 -326 104 -309 89 8 147 74 147 167 0 71
-27 116 -90 148 -60 30 -106 28 -161 -6z m143 -44 c24 -20 28 -43 12 -73 -13
-26 -13 -33 6 -72 25 -54 25 -53 -5 -53 -19 0 -28 8 -40 37 -27 65 -55 66 -55
2 0 -32 -3 -39 -19 -39 -18 0 -20 9 -23 101 -2 55 -1 103 1 105 10 10 109 3
123 -8z"/>
<path d="M6344 1095 c-8 -21 2 -45 19 -45 8 0 20 7 27 15 10 12 10 18 0 30 -7
8 -19 15 -27 15 -7 0 -16 -7 -19 -15z"/>
<path d="M360 645 l0 -297 128 4 c114 3 132 6 178 30 101 53 158 148 157 263
0 119 -62 211 -173 263 -47 22 -73 27 -172 30 l-118 4 0 -297z"/>
<path d="M3052 620 c-65 -40 -92 -132 -57 -200 21 -40 74 -70 124 -70 87 0
145 59 145 145 0 59 -20 93 -75 124 -46 26 -95 27 -137 1z"/>
<path d="M1464 626 c-69 -30 -102 -128 -67 -196 29 -56 78 -83 141 -78 145 12
182 200 52 269 -41 22 -83 24 -126 5z"/>
<path d="M3892 620 c-95 -58 -95 -192 0 -250 98 -60 226 22 215 137 -11 105
-127 166 -215 113z"/>
<path d="M4732 620 c-45 -28 -72 -76 -72 -130 1 -79 49 -130 129 -138 90 -8
155 52 155 143 0 59 -20 93 -75 124 -46 26 -95 27 -137 1z"/>
</g>
</svg>
